<?xml version="1.0" encoding="UTF-8"?>
<svg id="Layer_2" data-name="Layer 2" xmlns="http://www.w3.org/2000/svg" viewBox="0 0 356.43 813.65">
  <defs>
    <style>
      .cls-1 {
        fill: #295487;
      }
    </style>
  </defs>
  <g id="Capa_1" data-name="Capa 1">
    <path class="cls-1" d="m356.43,607.62v-11.12h-119.81c-15.41,0-30.31-1.75-41.91,8.38-7.79,6.8-15.15,14.99-17.08,22.84-4.51,18.34.34,37.23-17.46,37.22-.24-.01-14.74-.91-14.74-24.1s19.98-80.92,66.01-80.35h145v-117h-204c-30.7-1.84-52.57-28.94-55.63-32.76-.49-.61-1.11-1.07-1.66-1.64-18.73-26.76-20.49-45.48-20.57-49,0-.11-.01-.21-.02-.31-2.08-20.32,5.08-24.28,12.96-24.28,16.66,4.04,21.92,23.4,30.91,39.98,8.75,16.14,21.3,30.39,40,32,.08,0,.92,0,1,0,4.93.03,168.42,0,191.34,0h5.66s0-4.25,0-4.25v-202.75h-135.71c-4.82,0-9.63-.41-14.37-1.3-23.37-4.4-58.06-18.74-58.37-59.07-.15-19.94,7.52-26.35,16.02-26.35,17.8,0,11.13,50.72,51.85,50.72h140.59v-83.96c-1-28.04-27.28-80.54-80.06-80.54-42.72,0-66.8,20.81-75.51,30.24-2.15,2.33-1.84,5.99.66,7.94,15.24,11.86,63.54,51.55,47.12,66.14-19.4,17.25-40.43-43.12-88.94-43.12s-70.61,44.2-70.61,91.63c0,0-37.36,18.31-46.87,68.36-.88,4.64-2.8,15.43-.08,18.61,3.29,3.84,11.84-.49,17.41-1.75,6.85-1.55,15.46-2.75,25.77-2.75,20.13,0,38.34,4.7,57.69,18.03,20.6,14.18,36.35,34.24,46.25,57.2,10.7,24.85,11.74,45.73-3.15,54.13-21.02,11.86-14.55-94.33-104.03-94.33S.18,351.72.15,357.65c-.16,35.57,26.41,49.59,26.41,60.37,0,0-26.56,29.54-26.56,65.17s29.26,58.26,29.26,65.27-12.94,21.02-12.94,47.97,32.34,81.39,68.99,81.39c0,0-9.16,82.47,82.47,82.47s73.41-103.51,74.38-119.12c.5-8.06,28.23-9.53,31.87,35.6.46,9.44-.23,14.05-1.04,18.31-4.14,21.53-17.51,79.1-43.09,86.52-6.92,1.74-6.92.74-3.3,7.67,4.55,9.2,18.27,24.39,59.22,24.39,58.75,0,70.61-39.35,70.61-58.75"/>
  </g>
</svg>